<svg width="16" height="13" viewBox="0 0 16 13" fill="none" xmlns="http://www.w3.org/2000/svg">
<path d="M14.5 0.721313H1.50001C0.672854 0.721313 0 1.38865 0 2.20903V11.1352C0 11.9556 0.672854 12.623 1.50001 12.623H14.5C15.3271 12.623 16 11.9556 16 11.1352V2.20903C16 1.38865 15.3271 0.721313 14.5 0.721313V0.721313ZM14.5 1.71311C14.5679 1.71311 14.6325 1.72709 14.6916 1.7515L8 7.50364L1.30833 1.7515C1.36742 1.72712 1.43204 1.71311 1.49998 1.71311H14.5ZM14.5 11.6311H1.50001C1.22414 11.6311 0.999996 11.4089 0.999996 11.1352V2.79935L7.67236 8.53466C7.76661 8.61551 7.8833 8.65573 8 8.65573C8.1167 8.65573 8.23339 8.61555 8.32764 8.53466L15 2.79935V11.1352C15 11.4089 14.7759 11.6311 14.5 11.6311V11.6311Z" fill="#757575"/>
</svg>
