<svg width="10" height="17" viewBox="0 0 10 17" fill="none" xmlns="http://www.w3.org/2000/svg">
<path d="M8.5 0.737671H1.5C0.672848 0.737671 0 1.405 0 2.22538V15.1188C0 15.9392 0.672848 16.6065 1.5 16.6065H8.5C9.32715 16.6065 10 15.9392 10 15.1188V2.22538C10 1.405 9.32715 0.737671 8.5 0.737671ZM1.5 1.72947H8.5C8.77588 1.72947 9 1.95176 9 2.22538V12.6393H1V2.22538C1 1.95176 1.22412 1.72947 1.5 1.72947ZM8.5 15.6147H1.5C1.22412 15.6147 1 15.3924 1 15.1188V13.6311H9V15.1188C9 15.3924 8.77588 15.6147 8.5 15.6147Z" fill="#757575"/>
<path d="M2.35355 14.364C2.54882 14.5449 2.54882 14.8381 2.35355 15.0189C2.15828 15.1998 1.84172 15.1998 1.64645 15.0189C1.45118 14.8381 1.45118 14.5449 1.64645 14.364C1.84172 14.1832 2.15828 14.1832 2.35355 14.364Z" fill="#757575"/>
</svg>
